<?xml version="1.0" standalone="no"?>
<!DOCTYPE svg PUBLIC "-//W3C//DTD SVG 20010904//EN"
 "http://www.w3.org/TR/2001/REC-SVG-20010904/DTD/svg10.dtd">
<svg version="1.0" xmlns="http://www.w3.org/2000/svg"
 width="871.000000pt" height="871.000000pt" viewBox="0 0 871.000000 871.000000"
 preserveAspectRatio="xMidYMid meet">
<g transform="translate(0.000000,871.000000) scale(0.100000,-0.100000)"
fill="#000000" stroke="none">
<path d="M933 6010 c-3 -8 -9 -26 -13 -40 -8 -22 -166 -590 -176 -629 -2 -9
-78 -281 -169 -606 -191 -682 -345 -1233 -351 -1255 -6 -26 -191 -682 -207
-738 l-16 -52 461 2 462 3 37 135 c21 74 58 207 83 295 93 330 267 955 271
972 2 10 33 119 68 243 35 124 68 240 71 258 4 17 14 32 21 32 14 0 21 -24 30
-105 3 -27 8 -63 10 -80 4 -31 10 -77 25 -205 16 -136 21 -175 26 -210 11 -86
14 -108 20 -163 3 -32 7 -67 9 -79 3 -11 7 -46 10 -77 4 -31 8 -66 10 -79 2
-13 7 -53 11 -90 3 -37 8 -76 10 -87 2 -11 9 -60 14 -108 6 -49 12 -103 15
-120 2 -18 6 -52 9 -77 3 -25 12 -101 21 -168 9 -68 18 -145 21 -170 3 -26 7
-56 9 -67 2 -11 4 -22 4 -25 1 -3 126 -5 278 -4 252 0 277 2 287 17 9 15 48
71 176 257 6 8 84 123 174 255 91 132 188 275 218 318 29 42 83 121 119 175
37 53 86 124 109 157 22 33 115 168 205 300 90 132 167 245 172 250 4 6 33 47
63 93 30 45 61 82 68 82 8 0 11 -7 8 -17 -3 -10 -23 -83 -45 -163 -22 -80 -97
-347 -166 -595 -69 -247 -162 -580 -206 -740 -44 -159 -89 -317 -99 -350 l-18
-60 456 -3 c251 -1 459 1 462 5 6 7 323 1131 335 1184 2 9 13 49 25 89 12 40
23 80 25 89 2 9 32 120 68 246 36 127 100 354 142 505 93 333 133 476 179 640
19 69 41 150 50 180 8 30 35 129 61 219 25 90 43 166 40 169 -3 3 -265 6 -582
6 l-577 1 -40 -56 c-23 -30 -79 -110 -126 -177 -99 -143 -240 -342 -276 -392
-14 -19 -86 -120 -159 -225 -74 -104 -168 -237 -209 -295 -105 -148 -160 -227
-203 -290 -21 -30 -41 -59 -46 -65 -5 -5 -67 -93 -138 -195 -91 -129 -138
-187 -155 -192 -13 -3 -24 -3 -24 0 0 4 -9 68 -20 142 -11 74 -22 155 -25 180
-3 25 -8 54 -10 66 -3 11 -7 43 -10 70 -3 27 -8 56 -10 64 -2 8 -7 35 -10 60
-6 47 -16 115 -20 140 -2 8 -6 38 -9 65 -4 28 -8 61 -11 75 -2 14 -7 43 -10
65 -3 22 -10 67 -15 100 -5 33 -12 76 -14 95 -3 19 -17 116 -32 215 -14 99
-28 198 -31 220 -2 22 -8 63 -13 90 -5 28 -15 92 -21 143 -10 71 -16 92 -28
93 -9 0 -272 1 -585 2 -498 2 -569 0 -573 -13z"/>
<path d="M5230 6020 c0 -6 83 -307 99 -358 5 -18 11 -36 12 -40 1 -4 3 -11 4
-17 2 -5 8 -28 13 -50 5 -22 53 -197 107 -390 90 -322 109 -391 119 -436 6
-23 44 -158 55 -194 6 -16 31 -106 56 -200 26 -93 69 -251 97 -350 27 -99 54
-195 58 -214 7 -27 -8 -91 -81 -355 -50 -176 -92 -328 -94 -336 -9 -37 -77
-280 -90 -324 -8 -27 -15 -53 -15 -58 0 -4 209 -8 464 -8 l464 0 20 68 c34
114 252 897 257 920 7 37 34 86 73 128 20 23 85 99 144 170 58 71 115 139 126
152 11 13 35 41 52 62 17 21 41 49 52 62 11 13 37 43 57 68 20 25 38 47 41 50
9 9 64 75 100 120 19 24 40 48 45 54 6 6 33 38 60 71 28 33 55 65 60 71 6 6
26 30 45 54 37 47 92 112 100 120 3 3 25 30 50 60 25 30 49 60 55 66 5 6 28
33 50 59 22 27 80 96 128 154 99 118 94 112 197 236 41 50 77 92 80 95 3 3 96
114 208 248 188 224 200 242 175 243 -16 0 -251 1 -523 2 l-495 1 -292 -375
c-160 -206 -299 -383 -308 -394 -9 -11 -26 -33 -38 -49 -32 -41 -255 -328
-270 -346 -6 -9 -25 -33 -42 -55 -75 -100 -106 -135 -121 -135 -8 0 -15 7 -15
15 -1 8 -2 18 -4 23 -7 26 -18 74 -44 197 -17 77 -75 345 -130 595 -55 250
-103 470 -106 488 -4 17 -10 32 -13 33 -28 4 -1042 3 -1042 -1z"/>
</g>
</svg>
